<svg id="Group_16" data-name="Group 16" xmlns="http://www.w3.org/2000/svg" width="152" height="152" viewBox="0 0 152 152">
  <defs>
    <style>
      .cls-1 {
        fill: #5b43ef;
        opacity: 0.1;
      }

      .cls-2 {
        fill: #3d3d3d;
      }
    </style>
  </defs>
  <circle id="Ellipse_5330" data-name="Ellipse 5330" class="cls-1" cx="76" cy="76" r="76"/>
  <g id="facial-recognition" transform="translate(34.002 34.467)">
    <path id="Path_626" data-name="Path 626" class="cls-2" d="M66.155,65.873,56.644,63.02a6.652,6.652,0,0,1-4.77-6.411V50.965l1.691-1.183a4,4,0,0,0,5.3-5.94h.882a8.2,8.2,0,0,0,8.195-8.195V35.3a4.855,4.855,0,0,0-2.33-4.144l.687-4.122A22.365,22.365,0,0,0,44.232,1H34.443a9.354,9.354,0,0,0-5.575,1.858A9.471,9.471,0,0,0,25.1,10.4a9.376,9.376,0,0,0,.288,2.184,11.83,11.83,0,0,0-4.761,4.429A15.581,15.581,0,0,0,18.4,25.027c0,.226.024.453.033.68a9.374,9.374,0,1,0-1.269,11.179,8.176,8.176,0,0,0,8.092,6.955h.882a4,4,0,0,0,5.3,5.94l1.691,1.183v5.643a6.651,6.651,0,0,1-4.77,6.411l-9.509,2.853a17.424,17.424,0,0,0-12.5,16.794v1.339h72.3V82.667A17.424,17.424,0,0,0,66.155,65.873ZM10.372,37.148A6.694,6.694,0,0,1,9.033,23.895v7.9h7.9A6.707,6.707,0,0,1,10.372,37.148Zm1.339-8.033v-5.22a6.715,6.715,0,0,1,5.22,5.22ZM44.828,52.628a3.978,3.978,0,0,0-.987-.507V42.5h.241a3.74,3.74,0,0,0,1.956-.562l5.936,3.71a4.048,4.048,0,0,0-.1.869,4,4,0,0,0,.161,1.064Zm-3.905-12.8a1.1,1.1,0,0,1-1.1-1.1,1.06,1.06,0,0,1,.021-.216l1.37-6.848L37.111,21.4a3.988,3.988,0,0,0,1.127-1.663h8.527A4,4,0,0,0,47.893,21.4l-4.1,10.259,1.37,6.847a1.1,1.1,0,0,1-1.076,1.316Zm2.919,16.066A1.339,1.339,0,1,1,42.5,54.552,1.341,1.341,0,0,1,43.841,55.891ZM33.669,22.34a4.049,4.049,0,0,0,.8.08c.054,0,.1-.013.158-.016l3.22,8.049H30.207a4,4,0,0,0-.684-1.2ZM33.131,18.4a1.339,1.339,0,1,1,1.339,1.339A1.341,1.341,0,0,1,33.131,18.4Zm17.246,4c.054,0,.1.016.158.016a4.05,4.05,0,0,0,.8-.08l4.148,6.912a4,4,0,0,0-.684,1.2H47.159Zm-1.181-4a1.339,1.339,0,1,1,1.339,1.339A1.341,1.341,0,0,1,49.2,18.4Zm4.209,24.983L47.68,39.809a3.669,3.669,0,0,0,.178-1.082,3.733,3.733,0,0,0-.074-.74l-.971-4.856H54.8a4.011,4.011,0,0,0,1.778,2.129l-1.328,7.308A3.969,3.969,0,0,0,53.406,43.388Zm2.485,4.47a1.339,1.339,0,1,1,1.339-1.339A1.341,1.341,0,0,1,55.891,47.858Zm1.339-16.066a1.339,1.339,0,1,1,1.339,1.339A1.341,1.341,0,0,1,57.229,31.792Zm7.8,2.537a2.167,2.167,0,0,1,.229.968v.349a5.517,5.517,0,0,1-5.517,5.517h-1.52l.985-5.419a4.007,4.007,0,0,0,3.127-2.613H63.1A2.154,2.154,0,0,1,65.033,34.329ZM30.475,5a6.657,6.657,0,0,1,3.968-1.323h9.789A19.68,19.68,0,0,1,63.656,26.592l-.644,3.861h-.675a4,4,0,0,0-4.569-2.6L53.62,20.944a3.975,3.975,0,0,0,.932-2.54,4.007,4.007,0,0,0-7.786-1.339H38.239a3.991,3.991,0,0,0-7.18-.758l-.111-.074a7.213,7.213,0,0,1-2.826-3.7A6.75,6.75,0,0,1,30.475,5ZM22.921,18.388a9.124,9.124,0,0,1,3.45-3.285,9.9,9.9,0,0,0,3.093,3.359l1.067.711a3.977,3.977,0,0,0,.853,1.771l-4.148,6.912a4,4,0,0,0-4.569,2.6h-.755l-.58-2.9a12.9,12.9,0,0,1,1.589-9.169ZM25.26,41.164a5.517,5.517,0,0,1-5.517-5.517V35.3a2.177,2.177,0,0,1,.229-.969,2.155,2.155,0,0,1,1.937-1.2h.758a4.007,4.007,0,0,0,3.127,2.613l.985,5.419Zm1.177-8.033a1.339,1.339,0,1,1,1.339-1.339A1.341,1.341,0,0,1,26.437,33.131Zm2.678,14.727a1.339,1.339,0,1,1,1.339-1.339A1.341,1.341,0,0,1,29.115,47.858Zm.643-5.291-1.328-7.308a4.006,4.006,0,0,0,1.778-2.129h7.985l-.972,4.857a3.834,3.834,0,0,0-.072.74,3.712,3.712,0,0,0,.177,1.082L31.6,43.388a3.974,3.974,0,0,0-1.841-.821Zm3.213,5.016a4,4,0,0,0,.161-1.064,4.048,4.048,0,0,0-.1-.869l5.936-3.71a3.737,3.737,0,0,0,1.956.562h.241v9.618a4,4,0,0,0-.987.507ZM9.092,81.328A14.752,14.752,0,0,1,19.62,68.438l9.509-2.853a9.314,9.314,0,0,0,6.679-8.977V52.84l2.838,1.987a4.017,4.017,0,1,0,7.711,0L49.2,52.84v3.769a9.314,9.314,0,0,0,6.678,8.977l9.511,2.853a14.75,14.75,0,0,1,10.528,12.89Z" transform="translate(-1 -1)"/>
    <path id="Path_627" data-name="Path 627" class="cls-2" d="M3,36V49.388H21.743V46.71H5.678V36Z" transform="translate(-0.322 10.858)"/>
    <path id="Path_628" data-name="Path 628" class="cls-2" d="M5.678,5.678H19.066V3H3V16.388H5.678Z" transform="translate(-0.322 -0.322)"/>
    <path id="Path_629" data-name="Path 629" class="cls-2" d="M62.388,46.71H49v2.678H65.066V36H62.388Z" transform="translate(15.262 10.858)"/>
    <path id="Path_630" data-name="Path 630" class="cls-2" d="M62.388,16.388h2.678V3H49V5.678H62.388Z" transform="translate(15.262 -0.322)"/>
    <path id="Path_631" data-name="Path 631" class="cls-2" d="M53,21H66.388v2.678H53Z" transform="translate(16.617 5.776)"/>
    <path id="Path_632" data-name="Path 632" class="cls-2" d="M53,25H66.388v2.678H53Z" transform="translate(16.617 7.131)"/>
    <path id="Path_633" data-name="Path 633" class="cls-2" d="M53,29h2.678v2.678H53Z" transform="translate(16.617 8.486)"/>
    <path id="Path_634" data-name="Path 634" class="cls-2" d="M57,29h2.678v2.678H57Z" transform="translate(17.973 8.486)"/>
    <path id="Path_635" data-name="Path 635" class="cls-2" d="M61,29h2.678v2.678H61Z" transform="translate(19.328 8.486)"/>
    <path id="Path_636" data-name="Path 636" class="cls-2" d="M53,17h2.678v2.678H53Z" transform="translate(16.617 4.421)"/>
    <path id="Path_637" data-name="Path 637" class="cls-2" d="M57,17h2.678v2.678H57Z" transform="translate(17.973 4.421)"/>
    <path id="Path_638" data-name="Path 638" class="cls-2" d="M61,17h2.678v2.678H61Z" transform="translate(19.328 4.421)"/>
    <path id="Path_639" data-name="Path 639" class="cls-2" d="M7,36H20.388v2.678H7Z" transform="translate(1.033 10.858)"/>
    <path id="Path_640" data-name="Path 640" class="cls-2" d="M7,32H9.678v2.678H7Z" transform="translate(1.033 9.503)"/>
    <path id="Path_641" data-name="Path 641" class="cls-2" d="M11,32h2.678v2.678H11Z" transform="translate(2.388 9.503)"/>
    <path id="Path_642" data-name="Path 642" class="cls-2" d="M7,40h5.355v2.678H7Z" transform="translate(1.033 12.213)"/>
    <path id="Path_643" data-name="Path 643" class="cls-2" d="M13,40h5.355v2.678H13Z" transform="translate(3.066 12.213)"/>
  </g>
</svg>
