<svg xmlns="http://www.w3.org/2000/svg" width="152" height="152" viewBox="0 0 152 152">
  <defs>
    <style>
      .cls-1 {
        fill: #5b43ef;
        opacity: 0.1;
      }

      .cls-2 {
        fill: #3d3d3d;
      }
    </style>
  </defs>
  <g id="Group_15" data-name="Group 15" transform="translate(-0.13)">
    <circle id="Ellipse_5330" data-name="Ellipse 5330" class="cls-1" cx="76" cy="76" r="76" transform="translate(0.13)"/>
    <g id="business-and-finance" transform="translate(34.131 34.695)">
      <path id="Path_653" data-name="Path 653" class="cls-2" d="M22.171,43.461l-2.514.833a16.994,16.994,0,0,0,1,2.393l2.359-1.2a14.63,14.63,0,0,1-.845-2.024Z" transform="translate(5.051 13.319)"/>
      <path id="Path_654" data-name="Path 654" class="cls-2" d="M47.565,34.277A14.569,14.569,0,0,1,23.589,50.828L21.44,52.375A17.218,17.218,0,0,0,49.771,32.811Z" transform="translate(5.629 9.865)"/>
      <path id="Path_655" data-name="Path 655" class="cls-2" d="M79.135,15a3.978,3.978,0,0,0-3.973,3.973,3.934,3.934,0,0,0,.587,2.049l-7.2,8.793a3.936,3.936,0,0,0-1.338-.248,4.047,4.047,0,0,0-.569.057L59.02,22,51.984,27.47A3.924,3.924,0,0,0,50,26.919c-.1,0-.2.023-.3.03l-.016-.007L48.52,17.649H35.587l-1.159,9.278q-.977.356-1.952.817L25.088,22l-9.144,9.144L21.69,38.53c-.036.077-.061.154-.1.23L8.93,33.7c0-.052.016-.1.016-.155a4.017,4.017,0,1,0-1.005,2.614l11.32,4.528-7.666.959V54.575l9.278,1.16q.356.975.817,1.951l-5.746,7.388,9.144,9.144,7.388-5.746q.971.461,1.952.817l1.159,9.278H48.52l1.159-9.278q.977-.356,1.952-.817l7.388,5.746,9.144-9.144-5.746-7.388q.461-.971.817-1.951l9.278-1.16V41.641l-9.278-1.16q-.356-.975-.817-1.951l1.839-2.365A3.954,3.954,0,0,0,70.6,31.492L77.8,22.7a3.906,3.906,0,0,0,1.338.249,3.973,3.973,0,0,0,0-7.946ZM4.973,34.865A1.324,1.324,0,1,1,6.3,33.54,1.326,1.326,0,0,1,4.973,34.865Zm59.254-3.913a3.988,3.988,0,0,0-.493.715L53.9,30.153a3.878,3.878,0,0,0-.195-.665l5.1-3.964Zm-12.9-.06A1.324,1.324,0,1,1,50,29.567,1.326,1.326,0,0,1,51.324,30.892Zm-31.855.47,5.839-5.839,6.869,5.342.752-.391a19.659,19.659,0,0,1,3.109-1.3l.808-.256L37.926,20.3h8.256l.979,7.824a3.951,3.951,0,0,0,.07,5.61L45.812,36.8a11.875,11.875,0,0,0-14.329,5.818L28.8,41.591c0-.036.011-.069.011-.1a3.978,3.978,0,0,0-3.973-3.973,4.055,4.055,0,0,0-.542.054ZM33.021,46.053,38.091,48c0,.036-.011.069-.011.1a3.973,3.973,0,1,0,6.742-2.839L47.1,40.341a9.28,9.28,0,1,1-14.076,5.712Zm9.033.731a1.324,1.324,0,1,1-1.324,1.324A1.326,1.326,0,0,1,42.054,46.784Zm.359-2.613c-.121-.011-.236-.036-.359-.036a3.946,3.946,0,0,0-3,1.4l-5.08-1.953a9.242,9.242,0,0,1,10.723-4.356ZM24.838,40.162a1.324,1.324,0,1,1-1.324,1.324A1.326,1.326,0,0,1,24.838,40.162Zm34.848-1.177a19.5,19.5,0,0,1,1.3,3.108l.256.809,8.624,1.078v8.256l-8.623,1.077-.256.809a19.854,19.854,0,0,1-1.3,3.108l-.391.754,5.342,6.869L58.8,70.691l-6.869-5.342-.752.391a19.658,19.658,0,0,1-3.109,1.3l-.808.256-1.079,8.624H37.926L36.848,67.3l-.808-.256a19.658,19.658,0,0,1-3.109-1.3l-.752-.391-6.869,5.342L19.47,64.854l5.342-6.869-.391-.754a19.5,19.5,0,0,1-1.3-3.108l-.256-.809-8.624-1.078V43.98l6.976-.871a3.943,3.943,0,0,0,6.62.951l2.7,1.037a11.914,11.914,0,1,0,17.677-7.174l1.428-3.095a3.582,3.582,0,0,0,.359.037,3.958,3.958,0,0,0,3.48-2.1l8.988,1.384L59.3,38.231Zm7.53-4.12A1.324,1.324,0,1,1,68.54,33.54,1.326,1.326,0,0,1,67.216,34.865ZM79.135,20.3a1.324,1.324,0,1,1,1.324-1.324A1.326,1.326,0,0,1,79.135,20.3Z" transform="translate(-1 4.089)"/>
      <path id="Path_656" data-name="Path 656" class="cls-2" d="M32.169,14.243H26.323V1H23.675V16.892h2.1l-7.4,7.4-7.4-7.4h2.1V6.3H10.432v7.946H4.586L18.377,28.035Z" transform="translate(0.163 -0.452)"/>
      <path id="Path_657" data-name="Path 657" class="cls-2" d="M9,1h2.649V3.649H9Z" transform="translate(1.595 -0.452)"/>
      <path id="Path_658" data-name="Path 658" class="cls-2" d="M44.432,24.972H47.08V11.729h-2.1l7.4-7.4,7.4,7.4h-2.1v7.946h2.649v-5.3h5.846L52.377.586,38.586,14.377h5.846Z" transform="translate(11.19 -0.586)"/>
      <path id="Path_659" data-name="Path 659" class="cls-2" d="M53,17h2.649v2.649H53Z" transform="translate(15.864 4.737)"/>
    </g>
  </g>
</svg>
