<svg xmlns="http://www.w3.org/2000/svg" width="152" height="152" viewBox="0 0 152 152">
  <defs>
    <style>
      .cls-1 {
        fill: #5b43ef;
        opacity: 0.1;
      }

      .cls-2 {
        fill: #3d3d3d;
      }
    </style>
  </defs>
  <g id="Group_31" data-name="Group 31" transform="translate(0.444)">
    <circle id="Ellipse_5329" data-name="Ellipse 5329" class="cls-1" cx="76" cy="76" r="76" transform="translate(-0.444)"/>
    <g id="Group_14" data-name="Group 14" transform="translate(39.013 38.317)">
      <g id="Outline">
        <path id="Path_611" data-name="Path 611" class="cls-2" d="M89.505,16H17.246A1.246,1.246,0,0,0,16,17.246v4.983a1.246,1.246,0,0,0,1.246,1.246h1.246V80.784a1.246,1.246,0,0,0,1.246,1.246h29.9v8.721H52.13V82.03h2.492v8.721h2.492V82.03h29.9a1.246,1.246,0,0,0,1.246-1.246V23.475h1.246a1.246,1.246,0,0,0,1.246-1.246V17.246A1.246,1.246,0,0,0,89.505,16ZM85.768,79.539H20.983V23.475H85.768ZM88.26,20.983H18.492V18.492H88.26Z" transform="translate(-16 -16)"/>
        <path id="Path_612" data-name="Path 612" class="cls-2" d="M74.491,128.187l2.087-2.087a12.445,12.445,0,0,0,16.7-.848,1.246,1.246,0,0,0,0-1.762L85.7,115.941v-10.7A1.246,1.246,0,0,0,84.458,104a12.451,12.451,0,0,0-9.642,20.339l-2.452,2.452a1.246,1.246,0,0,0-.365.881v17.442h2.492Zm8.721-14.78-4.837-4.837a9.916,9.916,0,0,1,4.837-2Zm-8.721,3.051a9.915,9.915,0,0,1,2.117-6.131l6.8,6.8a1.24,1.24,0,0,0,.17.214l7.005,6.981a9.953,9.953,0,0,1-12.233.005l3.25-3.25-1.762-1.762-3.25,3.25A9.914,9.914,0,0,1,74.491,116.459Z" transform="translate(-63.278 -90.296)"/>
        <path id="Path_613" data-name="Path 613" class="cls-2" d="M72,384h2.492v2.492H72Z" transform="translate(-63.279 -326.691)"/>
        <path id="Path_614" data-name="Path 614" class="cls-2" d="M184.309,109.255a1.246,1.246,0,0,0,1.762,0A12.459,12.459,0,0,0,177.246,88,1.246,1.246,0,0,0,176,89.246v11.213a1.246,1.246,0,0,0,.367.882ZM178.492,90.57a9.969,9.969,0,0,1,6.639,15.987l-6.639-6.616Z" transform="translate(-151.083 -76.787)"/>
        <path id="Path_615" data-name="Path 615" class="cls-2" d="M128,320h2.492v2.492H128Z" transform="translate(-110.558 -272.658)"/>
        <path id="Path_616" data-name="Path 616" class="cls-2" d="M160,320h14.95v2.492H160Z" transform="translate(-137.575 -272.658)"/>
        <path id="Path_617" data-name="Path 617" class="cls-2" d="M112,352h22.425v2.492H112Z" transform="translate(-97.05 -299.674)"/>
        <path id="Path_618" data-name="Path 618" class="cls-2" d="M112,384h19.934v2.492H112Z" transform="translate(-97.05 -326.691)"/>
        <path id="Path_619" data-name="Path 619" class="cls-2" d="M304,96h2.492v2.492H304Z" transform="translate(-259.149 -83.541)"/>
        <path id="Path_620" data-name="Path 620" class="cls-2" d="M336,96h9.967v2.492H336Z" transform="translate(-286.166 -83.541)"/>
        <path id="Path_621" data-name="Path 621" class="cls-2" d="M288,128h17.442v2.492H288Z" transform="translate(-245.641 -110.558)"/>
        <path id="Path_622" data-name="Path 622" class="cls-2" d="M288,160h14.95v2.492H288Z" transform="translate(-245.641 -137.575)"/>
        <path id="Path_623" data-name="Path 623" class="cls-2" d="M315.934,249.246A1.246,1.246,0,0,0,314.688,248H309.7a1.246,1.246,0,0,0-1.246,1.246v3.738h-3.738a1.246,1.246,0,0,0-1.246,1.246v3.737h-3.738a1.246,1.246,0,0,0-1.246,1.246v9.967H296v2.492h22.425V269.18h-2.492Zm-14.95,11.213h2.492v8.721h-2.492Zm4.983-1.246v-3.738h2.492v13.7h-2.492Zm4.983,9.967V250.492h2.492V269.18Z" transform="translate(-252.395 -211.87)"/>
        <path id="Path_624" data-name="Path 624" class="cls-2" d="M392,132.459v4.983h2.492v-4.467l4.618-4.619a1.246,1.246,0,0,0,.365-.881V120h-2.492v6.959l-4.619,4.619A1.246,1.246,0,0,0,392,132.459Z" transform="translate(-333.445 -103.804)"/>
        <path id="Path_625" data-name="Path 625" class="cls-2" d="M424,88h2.492v2.492H424Z" transform="translate(-360.461 -76.787)"/>
      </g>
    </g>
  </g>
</svg>
